<svg width="16" height="16" viewBox="0 0 16 16" fill="none" xmlns="http://www.w3.org/2000/svg">
<path d="M4.0625 1.25V2.9375M11.9375 1.25V2.9375M1.25 13.0625V4.625C1.25 3.69302 2.00552 2.9375 2.9375 2.9375H13.0625C13.9945 2.9375 14.75 3.69302 14.75 4.625V13.0625M1.25 13.0625C1.25 13.9945 2.00552 14.75 2.9375 14.75H13.0625C13.9945 14.75 14.75 13.9945 14.75 13.0625M1.25 13.0625V7.4375C1.25 6.50552 2.00552 5.75 2.9375 5.75H13.0625C13.9945 5.75 14.75 6.50552 14.75 7.4375V13.0625M8 8.5625H8.00563V8.56813H8V8.5625ZM8 10.25H8.00563V10.2556H8V10.25ZM8 11.9375H8.00563V11.9431H8V11.9375ZM6.3125 10.25H6.31813V10.2556H6.3125V10.25ZM6.3125 11.9375H6.31813V11.9431H6.3125V11.9375ZM4.625 10.25H4.63063V10.2556H4.625V10.25ZM4.625 11.9375H4.63063V11.9431H4.625V11.9375ZM9.6875 8.5625H9.69313V8.56813H9.6875V8.5625ZM9.6875 10.25H9.69313V10.2556H9.6875V10.25ZM9.6875 11.9375H9.69313V11.9431H9.6875V11.9375ZM11.375 8.5625H11.3806V8.56813H11.375V8.5625ZM11.375 10.25H11.3806V10.2556H11.375V10.25Z" stroke="#034DA2" stroke-linecap="round" stroke-linejoin="round"/>
</svg>
