<svg width="24" height="24" viewBox="0 0 24 24" fill="none" xmlns="http://www.w3.org/2000/svg">
<path fill-rule="evenodd" clip-rule="evenodd" d="M6.75 21C6.33579 21 6 20.6642 6 20.25L6 3.75C6 3.33579 6.33579 3 6.75 3C7.16421 3 7.5 3.33579 7.5 3.75L7.5 20.25C7.5 20.6642 7.16421 21 6.75 21ZM12 21C11.5858 21 11.25 20.6642 11.25 20.25V3.75C11.25 3.33579 11.5858 3 12 3C12.4142 3 12.75 3.33579 12.75 3.75V20.25C12.75 20.6642 12.4142 21 12 21Z" fill="#034DA2"/>
<path d="M19.3523 20.7508C18.9495 20.8476 18.5446 20.5995 18.4478 20.1968L14.5932 4.15335C14.4964 3.7506 14.7445 3.34566 15.1472 3.24889C15.55 3.15212 15.9549 3.40017 16.0517 3.80293L19.9063 19.8464C20.0031 20.2491 19.755 20.654 19.3523 20.7508Z" fill="#034DA2"/>
</svg>
