<svg width="18" height="22" viewBox="0 0 18 22" fill="none" xmlns="http://www.w3.org/2000/svg">
<path d="M6 7.5L16.5 4.5M16.5 11.0528V14.8028C16.5 15.8074 15.834 16.6903 14.8681 16.9663L13.5481 17.3434C12.3964 17.6724 11.25 16.8077 11.25 15.6099C11.25 14.805 11.7836 14.0975 12.5576 13.8764L14.8681 13.2163C15.834 12.9403 16.5 12.0574 16.5 11.0528ZM16.5 11.0528V0.75L6 3.75V14.0528M6 14.0528V17.8028C6 18.8074 5.33405 19.6903 4.36812 19.9663L3.04814 20.3434C1.89645 20.6724 0.75 19.8077 0.75 18.6099C0.75 17.805 1.2836 17.0975 2.05757 16.8764L4.36812 16.2163C5.33405 15.9403 6 15.0574 6 14.0528Z" stroke="#034DA2" stroke-width="1.5" stroke-linecap="round" stroke-linejoin="round"/>
</svg>
