<svg width="24" height="24" viewBox="0 0 24 24" fill="none" xmlns="http://www.w3.org/2000/svg">
<path fill-rule="evenodd" clip-rule="evenodd" d="M2.25 4.66165C2.25 4.15816 2.65816 3.75 3.16165 3.75H20.483C20.9865 3.75 21.3947 4.15816 21.3947 4.66165C21.3947 5.16514 20.9865 5.5733 20.483 5.5733H3.16165C2.65816 5.5733 2.25 5.16514 2.25 4.66165ZM2.25 10.1316C2.25 9.62807 2.65816 9.21991 3.16165 9.21991H15.0131C15.5166 9.21991 15.9248 9.62807 15.9248 10.1316C15.9248 10.6351 15.5166 11.0432 15.0131 11.0432H3.16165C2.65816 11.0432 2.25 10.6351 2.25 10.1316ZM2.25 15.6015C2.25 15.098 2.65816 14.6898 3.16165 14.6898H9.54322C10.0467 14.6898 10.4549 15.098 10.4549 15.6015C10.4549 16.105 10.0467 16.5131 9.54322 16.5131H3.16165C2.65816 16.5131 2.25 16.105 2.25 15.6015Z" fill="#034DA2"/>
<path d="M16.4111 14.5212C16.8903 14.5213 17.3253 14.7073 17.6494 15.0115C17.7947 15.1475 18.0067 15.1842 18.1895 15.1052C18.2002 15.1006 18.2104 15.094 18.2207 15.0886V16.3308C18.2207 17.3302 17.4105 18.1403 16.4111 18.1404C15.4118 18.1404 14.6016 17.3302 14.6016 16.3308C14.6016 15.3314 15.4118 14.5212 16.4111 14.5212ZM19.4258 9.2937C19.4906 9.30132 19.5711 9.32633 19.6934 9.37964C19.8142 9.4323 19.967 9.50813 20.1748 9.61206L21.4912 10.2703C21.6531 10.3511 21.725 10.3895 21.7812 10.4324C21.9446 10.5573 22.057 10.7382 22.0957 10.9402C22.1023 10.9749 22.1053 11.0126 22.1074 11.0642L22.1104 11.2722V11.3132C22.1104 11.5451 22.1104 11.7149 22.1035 11.8464C22.0965 11.98 22.0827 12.0635 22.0605 12.1248V12.1257C21.9282 12.4907 21.5614 12.7166 21.1758 12.6716C21.111 12.664 21.0305 12.639 20.9082 12.5857C20.7874 12.533 20.6346 12.4572 20.4268 12.3533L19.1104 11.6951C19.0486 11.6643 19 11.6394 18.9561 11.616C18.8104 11.5383 18.6366 11.5387 18.4912 11.614V10.4968C18.4915 10.3395 18.4929 10.2164 18.498 10.1179C18.5051 9.98454 18.5188 9.901 18.541 9.8396C18.6733 9.47458 19.0401 9.24871 19.4258 9.2937Z" stroke="#034DA2" stroke-linecap="round" stroke-linejoin="round"/>
</svg>
