<svg width="18" height="18" viewBox="0 0 18 18" fill="none" xmlns="http://www.w3.org/2000/svg">
<path d="M5.01434 8.08925C4.69413 7.51409 4.08 7.125 3.375 7.125C2.33947 7.125 1.5 7.96447 1.5 9C1.5 10.0355 2.33947 10.875 3.375 10.875C4.08 10.875 4.69413 10.4859 5.01434 9.91075M5.01434 8.08925C5.16447 8.35891 5.25 8.66947 5.25 9C5.25 9.33053 5.16447 9.64109 5.01434 9.91075M5.01434 8.08925L12.9857 3.66075M5.01434 9.91075L12.9857 14.3393M12.9857 14.3393C12.8355 14.6089 12.75 14.9195 12.75 15.25C12.75 16.2855 13.5895 17.125 14.625 17.125C15.6605 17.125 16.5 16.2855 16.5 15.25C16.5 14.2145 15.6605 13.375 14.625 13.375C13.92 13.375 13.3059 13.7641 12.9857 14.3393ZM12.9857 3.66075C13.3059 4.23591 13.92 4.625 14.625 4.625C15.6605 4.625 16.5 3.78553 16.5 2.75C16.5 1.71447 15.6605 0.875 14.625 0.875C13.5895 0.875 12.75 1.71447 12.75 2.75C12.75 3.08053 12.8355 3.39109 12.9857 3.66075Z" stroke="white" stroke-width="1.25" stroke-linecap="round" stroke-linejoin="round"/>
</svg>
