<svg width="18" height="20" viewBox="0 0 18 20" fill="none" xmlns="http://www.w3.org/2000/svg">
<path d="M4.61578 8.99818C4.26354 8.3655 3.588 7.9375 2.8125 7.9375C1.67341 7.9375 0.75 8.86091 0.75 10C0.75 11.1391 1.67341 12.0625 2.8125 12.0625C3.588 12.0625 4.26354 11.6345 4.61578 11.0018M4.61578 8.99818C4.78092 9.2948 4.875 9.63641 4.875 10C4.875 10.3636 4.78092 10.7052 4.61578 11.0018M4.61578 8.99818L13.3842 4.12682M4.61578 11.0018L13.3842 15.8732M13.3842 15.8732C13.2191 16.1698 13.125 16.5114 13.125 16.875C13.125 18.0141 14.0484 18.9375 15.1875 18.9375C16.3266 18.9375 17.25 18.0141 17.25 16.875C17.25 15.7359 16.3266 14.8125 15.1875 14.8125C14.412 14.8125 13.7365 15.2405 13.3842 15.8732ZM13.3842 4.12682C13.7365 4.7595 14.412 5.1875 15.1875 5.1875C16.3266 5.1875 17.25 4.26409 17.25 3.125C17.25 1.98591 16.3266 1.0625 15.1875 1.0625C14.0484 1.0625 13.125 1.98591 13.125 3.125C13.125 3.48859 13.2191 3.8302 13.3842 4.12682Z" stroke="#034DA2" stroke-width="1.5" stroke-linecap="round" stroke-linejoin="round"/>
</svg>
