<svg width="21" height="20" viewBox="0 0 21 20" fill="none" xmlns="http://www.w3.org/2000/svg">
<path d="M16.0264 13L19.0264 16M19.0264 16L16.0264 19M19.0264 16H16.5952C15.656 16 15.1864 16 14.7602 15.8705C14.3828 15.7559 14.0317 15.5681 13.727 15.3176C13.3829 15.0348 13.1224 14.644 12.6014 13.8626L12.3597 13.5M16.0264 1L19.0264 4M19.0264 4L16.0264 7M19.0264 4H16.5952C15.656 4 15.1864 4 14.7602 4.12945C14.3828 4.24406 14.0317 4.43194 13.727 4.68236C13.3829 4.96523 13.1224 5.35597 12.6014 6.13744L7.45133 13.8626C6.93035 14.644 6.66985 15.0348 6.32569 15.3176C6.02101 15.5681 5.66994 15.7559 5.29257 15.8705C4.8663 16 4.3967 16 3.45748 16H1.02637M1.02637 4H3.45749C4.3967 4 4.86631 4 5.29257 4.12945C5.66994 4.24406 6.02101 4.43194 6.32569 4.68236C6.66985 4.96523 6.93035 5.35597 7.45133 6.13744L7.69303 6.5" stroke="#242424" stroke-width="2" stroke-linecap="round" stroke-linejoin="round"/>
</svg>
